<svg xmlns="http://www.w3.org/2000/svg" viewBox="0 0 400 300" width="406" height="306" class="illustration styles_illustrationTablet__1DWOa"><g id="_39_birthday_outline" data-name="#39_birthday_outline"><path d="M273.83,180.19v47H127.3v-47A15.18,15.18,0,0,1,142.48,165H258.65A15.18,15.18,0,0,1,273.83,180.19Z" fill="#FB9E9F"></path><path d="M273.83,228.23H127.3a1,1,0,0,1-1-1v-47A16.2,16.2,0,0,1,142.48,164H258.65a16.2,16.2,0,0,1,16.18,16.18v47A1,1,0,0,1,273.83,228.23Zm-145.53-2H272.83v-46A14.19,14.19,0,0,0,258.65,166H142.48a14.19,14.19,0,0,0-14.18,14.18Z" fill="#093f68"></path><path d="M273.83,180.19v1.31a18.81,18.81,0,0,0-6.12-.93c-13.43,0-13.43,10.7-26.87,10.7s-13.43-10.7-26.86-10.7-13.43,10.7-26.85,10.7-13.43-10.7-26.86-10.7-13.43,10.7-26.86,10.7a18.7,18.7,0,0,1-6.11-.93V180.19A15.18,15.18,0,0,1,142.48,165H258.65A15.18,15.18,0,0,1,273.83,180.19Z" fill="#fff"></path><path d="M240.84,192.27c-7.06,0-10.61-2.83-14.05-5.57s-6.44-5.13-12.81-5.13-9.49,2.5-12.8,5.13-7,5.57-14.05,5.57-10.62-2.83-14.06-5.57-6.44-5.13-12.8-5.13-9.5,2.5-12.81,5.13-7,5.57-14.05,5.57a19.74,19.74,0,0,1-6.44-1,1,1,0,0,1-.67-.95V180.19A16.2,16.2,0,0,1,142.48,164H258.65a16.2,16.2,0,0,1,16.18,16.18v1.31a1,1,0,0,1-.42.81,1,1,0,0,1-.9.14,17.8,17.8,0,0,0-5.8-.88c-6.36,0-9.49,2.49-12.81,5.13S247.91,192.27,240.84,192.27ZM214,179.57c7.07,0,10.62,2.83,14.06,5.57s6.44,5.13,12.8,5.13,9.5-2.49,12.82-5.13,7-5.57,14-5.57a21.1,21.1,0,0,1,5.12.59A14.19,14.19,0,0,0,258.65,166H142.48a14.19,14.19,0,0,0-14.18,14.18v9.42a18.45,18.45,0,0,0,5.11.66c6.36,0,9.49-2.49,12.8-5.13s7-5.57,14.06-5.57,10.61,2.83,14,5.57,6.44,5.13,12.81,5.13,9.49-2.49,12.8-5.13S206.92,179.57,214,179.57Z" fill="#093f68"></path><path d="M256.94,127.69V165H144.19V127.69a13.37,13.37,0,0,1,13.37-13.36h86a13.37,13.37,0,0,1,13.35,12.76C256.93,127.29,256.94,127.49,256.94,127.69Z" fill="#FB9E9F"></path><path d="M256.94,166H144.19a1,1,0,0,1-1-1V127.7a14.38,14.38,0,0,1,14.37-14.37h86A14.32,14.32,0,0,1,257.92,127c0,.21,0,.44,0,.66V165A1,1,0,0,1,256.94,166Zm-111.75-2H255.94V127.7c0-.2,0-.38,0-.57a12.33,12.33,0,0,0-12.35-11.8h-86a12.39,12.39,0,0,0-12.37,12.37Z" fill="#093f68"></path><path d="M256.92,127.09a12.66,12.66,0,0,0-7.83-2.43c-9.71,0-9.71,7.73-19.41,7.73s-9.71-7.73-19.41-7.73-9.72,7.73-19.42,7.73-9.7-7.73-19.41-7.73-9.7,7.73-19.41,7.73a12.76,12.76,0,0,1-7.84-2.44v-2.26a13.37,13.37,0,0,1,13.37-13.36h86A13.37,13.37,0,0,1,256.92,127.09Z" fill="#fff"></path><path d="M229.68,133.39c-5.21,0-7.81-2.08-10.33-4.08-2.35-1.88-4.58-3.65-9.08-3.65s-6.74,1.77-9.09,3.65c-2.52,2-5.13,4.08-10.33,4.08s-7.81-2.08-10.33-4.08c-2.35-1.88-4.58-3.65-9.08-3.65s-6.73,1.77-9.08,3.65c-2.52,2-5.12,4.08-10.33,4.08a13.59,13.59,0,0,1-8.41-2.62,1,1,0,0,1-.43-.82V127.7a14.38,14.38,0,0,1,14.37-14.37h86A14.32,14.32,0,0,1,257.92,127a1,1,0,0,1-.52.93,1,1,0,0,1-1.06-.06,11.67,11.67,0,0,0-7.25-2.25c-4.5,0-6.73,1.77-9.09,3.65C237.48,131.31,234.88,133.39,229.68,133.39Zm-19.41-9.73c5.2,0,7.81,2.07,10.33,4.08,2.35,1.88,4.57,3.65,9.08,3.65s6.72-1.77,9.08-3.65c2.52-2,5.13-4.08,10.33-4.08a13.76,13.76,0,0,1,6.58,1.49,12.32,12.32,0,0,0-12.1-9.82h-86a12.39,12.39,0,0,0-12.37,12.37v1.72a11.69,11.69,0,0,0,6.84,2c4.51,0,6.73-1.77,9.08-3.65,2.52-2,5.13-4.08,10.33-4.08s7.81,2.07,10.33,4.08c2.35,1.88,4.58,3.65,9.08,3.65s6.73-1.77,9.08-3.65C202.45,125.73,205.06,123.66,210.27,123.66Z" fill="#093f68"></path><path d="M175.66,89.31c0,4.89-2.21,6.15-4.94,6.15s-4.94-1.26-4.94-6.15,4.94-11.54,4.94-11.54S175.66,84.43,175.66,89.31Z" fill="#ffbc0e"></path><path d="M170.72,96.46c-3.94,0-5.94-2.41-5.94-7.15,0-5.15,4.93-11.85,5.14-12.14a1,1,0,0,1,1.6,0c.21.29,5.14,7,5.14,12.14C176.66,94.05,174.66,96.46,170.72,96.46Zm0-16.93c-1.35,2.07-3.94,6.45-3.94,9.78,0,4.53,2,5.15,3.94,5.15s3.94-.62,3.94-5.15C174.66,86,172.07,81.6,170.72,79.53Z" fill="#093f68"></path><rect x="166.37" y="98.92" width="8.28" height="15.41" fill="#70cc40"></rect><path d="M174.65,115.33h-8.28a1,1,0,0,1-1-1V98.92a1,1,0,0,1,1-1h8.28a1,1,0,0,1,1,1v15.41A1,1,0,0,1,174.65,115.33Zm-7.28-2h6.28V99.92h-6.28Z" fill="#093f68"></path><path d="M170.51,99.92a1,1,0,0,1-1-1v-8.7a1,1,0,0,1,2,0v8.7A1,1,0,0,1,170.51,99.92Z" fill="#093f68"></path><path d="M205.49,82.31c0,4.89-2.21,6.15-4.94,6.15s-4.94-1.26-4.94-6.15,4.94-11.54,4.94-11.54S205.49,77.43,205.49,82.31Z" fill="#ffbc0e"></path><path d="M200.55,89.46c-3.94,0-5.94-2.41-5.94-7.15,0-5.15,4.93-11.85,5.14-12.14a1,1,0,0,1,1.61,0c.21.29,5.14,7,5.14,12.14C206.5,87.05,204.5,89.46,200.55,89.46Zm0-16.93c-1.35,2.07-3.94,6.45-3.94,9.78,0,4.53,2,5.15,3.94,5.15s3.95-.62,3.95-5.15C204.5,79,201.91,74.6,200.55,72.53Z" fill="#093f68"></path><rect x="196.21" y="91.92" width="8.28" height="22.41" fill="#f56132"></rect><path d="M204.49,115.33h-8.28a1,1,0,0,1-1-1V91.92a1,1,0,0,1,1-1h8.28a1,1,0,0,1,1,1v22.41A1,1,0,0,1,204.49,115.33Zm-7.28-2h6.28V92.92h-6.28Z" fill="#093f68"></path><path d="M200.35,92.92a1,1,0,0,1-1-1v-8.7a1,1,0,0,1,2,0v8.7A1,1,0,0,1,200.35,92.92Z" fill="#093f68"></path><path d="M235.33,89.31c0,4.89-2.21,6.15-4.94,6.15s-4.94-1.26-4.94-6.15,4.94-11.54,4.94-11.54S235.33,84.43,235.33,89.31Z" fill="#ffbc0e"></path><path d="M230.39,96.46c-3.94,0-5.94-2.41-5.94-7.15,0-5.15,4.93-11.85,5.14-12.14a1,1,0,0,1,.8-.4h0a1,1,0,0,1,.8.4c.21.29,5.14,7,5.14,12.14C236.33,94.05,234.33,96.46,230.39,96.46Zm0-16.93c-1.35,2.07-3.94,6.45-3.94,9.78,0,4.53,2,5.15,3.94,5.15s3.94-.62,3.94-5.15C234.33,86,231.74,81.59,230.39,79.53Z" fill="#093f68"></path><rect x="226.04" y="98.92" width="8.28" height="15.41" fill="#70cc40"></rect><path d="M234.32,115.33H226a1,1,0,0,1-1-1V98.92a1,1,0,0,1,1-1h8.28a1,1,0,0,1,1,1v15.41A1,1,0,0,1,234.32,115.33Zm-7.28-2h6.28V99.92H227Z" fill="#093f68"></path><path d="M230.18,99.92a1,1,0,0,1-1-1v-8.7a1,1,0,1,1,2,0v8.7A1,1,0,0,1,230.18,99.92Z" fill="#093f68"></path><path d="M292.94,228.23H107.06a1,1,0,1,1,0-2H292.94a1,1,0,0,1,0,2Z" fill="#093f68"></path></g></svg>